<svg xmlns="http://www.w3.org/2000/svg" width="1440" height="615" fill="none" viewBox="0 0 1440 615"><path fill="url(#paint0_linear_540_925)" fill-opacity=".7" fill-rule="evenodd" d="M1428.42 140.408C1398.96 124.324 1346.01 103.857 1282.86 94.6858C1219.7 85.5142 1146.32 87.6352 1076 116.764C1054 125.876 1038.75 137.062 1028.43 149.695C1018.12 162.331 1012.76 176.389 1010.51 191.21C1006.65 216.703 1011.99 244.502 1017.13 271.24C1017.96 275.552 1018.78 279.837 1019.56 284.08C1022.37 299.376 1024.6 314.135 1024.43 327.74C1024.26 341.342 1021.7 353.76 1014.95 364.393C1001.46 385.644 971.104 399.967 908.951 402.05C815.412 405.186 751.308 377.782 696.997 354.564C679.163 346.94 662.385 339.767 645.967 334.275C612.763 323.169 581.051 318.961 545.159 331.927C509.291 344.885 469.307 374.974 419.494 432.316C369.748 489.582 328.234 506.587 291.201 501.386C254.114 496.177 221.355 468.687 189.158 436.519C181.381 428.749 173.637 420.706 165.875 412.644C141.548 387.378 117.043 361.927 90.7799 344.109C73.4458 332.349 55.3166 323.89 35.9289 320.993C16.5347 318.096 -4.08926 320.769 -26.3992 331.227L-26.006 332.065C-3.85021 321.68 16.59 319.041 35.7921 321.91C55.0007 324.779 72.9998 333.165 90.2598 344.876C116.435 362.634 140.842 387.983 165.154 413.232C172.928 421.307 180.694 429.372 188.503 437.174C220.689 469.331 253.645 497.047 291.072 502.303C328.554 507.567 370.355 490.297 420.194 432.924C469.965 375.629 509.823 345.677 545.474 332.798C581.1 319.928 612.584 324.086 645.673 335.154C661.998 340.615 678.718 347.763 696.514 355.371C750.851 378.601 815.216 406.119 908.982 402.976C971.194 400.891 1001.98 386.554 1015.73 364.889C1022.6 354.063 1025.19 341.458 1025.35 327.752C1025.52 314.05 1023.28 299.215 1020.47 283.912C1019.69 279.654 1018.86 275.36 1018.03 271.043C1012.89 244.291 1007.59 216.671 1011.43 191.349C1013.65 176.664 1018.95 162.768 1029.15 150.281C1039.35 137.792 1054.46 126.687 1076.35 117.62C1146.47 88.5723 1219.68 86.4475 1282.72 95.6026C1345.77 104.758 1398.61 125.19 1427.97 141.221L1428.42 140.408ZM1301.39 131.741C1364.54 140.912 1417.48 161.379 1446.95 177.462L1446.5 178.275C1417.14 162.245 1364.29 141.813 1301.25 132.657C1238.21 123.502 1165 125.627 1094.88 154.674C1072.99 163.742 1057.88 174.847 1047.68 187.336C1037.48 199.823 1032.18 213.719 1029.95 228.404C1026.12 253.726 1031.42 281.346 1036.56 308.097C1037.39 312.414 1038.22 316.709 1039 320.967C1041.81 336.27 1044.05 351.104 1043.88 364.807C1043.71 378.513 1041.13 391.118 1034.26 401.944C1020.51 423.609 989.721 437.946 927.509 440.031C833.743 443.174 769.378 415.656 715.042 392.426L715.038 392.424L715.037 392.424C697.243 384.816 680.524 377.669 664.201 372.209C631.111 361.141 599.628 356.982 564.001 369.853C528.351 382.732 488.493 412.684 438.721 469.979C388.882 527.351 347.082 544.622 309.6 539.358C272.172 534.102 239.217 506.386 207.031 474.229C199.222 466.427 191.457 458.363 183.683 450.289L183.681 450.287C159.37 425.038 134.962 399.689 108.787 381.93C91.5273 370.22 73.5282 361.834 54.3195 358.964C35.1175 356.096 14.6773 358.735 -7.47849 369.12L-7.87167 368.281C14.4382 357.824 35.0622 355.151 54.4564 358.048C73.8441 360.945 91.9733 369.403 109.307 381.164C135.57 398.982 160.075 424.433 184.402 449.699L184.404 449.701L184.406 449.703C192.167 457.763 199.91 465.805 207.686 473.574C239.883 505.742 272.641 533.232 309.728 538.441C346.761 543.642 388.276 526.637 438.022 469.371C487.835 412.028 527.818 381.94 563.686 368.982C599.578 356.015 631.29 360.223 664.494 371.33C680.911 376.822 697.688 383.994 715.521 391.617L715.524 391.618C769.835 414.836 833.939 442.241 927.478 439.105C989.632 437.022 1019.99 422.699 1033.48 401.447C1040.23 390.815 1042.79 378.397 1042.96 364.795C1043.12 351.189 1040.89 336.431 1038.09 321.134C1037.31 316.891 1036.48 312.607 1035.66 308.295C1030.52 281.557 1025.17 253.758 1029.04 228.265C1031.28 213.443 1036.64 199.385 1046.96 186.75C1057.28 174.117 1072.53 162.931 1094.53 153.819C1164.84 124.69 1238.23 122.569 1301.39 131.741ZM1465.47 214.517C1436.01 198.434 1383.06 177.966 1319.91 168.795C1256.76 159.624 1183.37 161.745 1113.05 190.873C1091.06 199.986 1075.8 211.172 1065.49 223.805C1055.17 236.44 1049.81 250.498 1047.57 265.32C1043.7 290.812 1049.04 318.612 1054.18 345.349C1055.01 349.662 1055.84 353.946 1056.61 358.189C1059.42 373.485 1061.65 388.244 1061.48 401.85C1061.32 415.451 1058.75 427.869 1052 438.502C1038.51 459.753 1008.16 474.076 946.006 476.16C852.467 479.295 788.363 451.891 734.051 428.673C716.217 421.049 699.439 413.877 683.022 408.385C649.817 397.278 618.105 393.07 582.214 406.036C546.345 418.994 506.362 449.083 456.549 506.426C406.803 563.691 365.288 580.696 328.256 575.495C291.168 570.287 258.41 542.797 226.213 510.629C218.436 502.858 210.692 494.815 202.93 486.754C178.602 461.487 154.097 436.036 127.835 418.218C110.501 406.458 92.3713 397.999 72.9837 395.103C53.5895 392.205 32.9655 394.878 10.6556 405.336L11.0488 406.175C33.2045 395.789 53.6448 393.15 72.8468 396.019C92.0555 398.889 110.055 407.275 127.315 418.985C153.489 436.743 177.897 462.092 202.208 487.342C209.983 495.417 217.748 503.481 225.558 511.284C257.744 543.441 290.699 571.156 328.127 576.413C365.609 581.677 407.409 564.406 457.248 507.033C507.02 449.738 546.878 419.787 582.528 406.908C618.155 394.037 649.639 398.195 682.728 409.263C699.053 414.724 715.773 421.872 733.568 429.48L733.569 429.481C787.905 452.711 852.27 480.229 946.037 477.086C1008.25 475 1039.03 460.664 1052.79 438.998C1059.66 428.173 1062.24 415.568 1062.41 401.861C1062.58 388.159 1060.33 373.325 1057.53 358.022C1056.74 353.763 1055.92 349.469 1055.09 345.152C1049.95 318.4 1044.64 290.78 1048.48 265.458C1050.71 250.774 1056.01 236.878 1066.21 224.391C1076.4 211.901 1091.52 200.797 1113.41 191.729C1183.53 162.682 1256.74 160.557 1319.78 169.712C1382.82 178.867 1435.67 199.299 1465.03 215.33L1465.47 214.517ZM1484 251.572C1454.54 235.488 1401.59 215.021 1338.44 205.85C1275.29 196.679 1201.9 198.8 1131.58 227.928C1109.58 237.04 1094.33 248.226 1084.02 260.86C1073.7 273.495 1068.34 287.553 1066.09 302.374C1062.23 327.867 1067.57 355.666 1072.71 382.404C1073.54 386.716 1074.36 391.001 1075.14 395.244C1077.95 410.54 1080.18 425.299 1080.01 438.905C1079.84 452.506 1077.28 464.924 1070.53 475.557C1057.04 496.808 1026.69 511.131 964.533 513.215C870.994 516.35 806.89 488.946 752.579 465.728C734.745 458.104 717.967 450.931 701.549 445.44C668.345 434.333 636.633 430.125 600.741 443.091C564.873 456.049 524.889 486.138 475.076 543.481C425.331 600.746 383.816 617.751 346.783 612.55C309.696 607.341 276.937 579.851 244.74 547.683C236.963 539.913 229.22 531.871 221.458 523.809L221.457 523.809C197.13 498.542 172.625 473.091 146.362 455.273C129.028 443.513 110.899 435.054 91.5112 432.158C72.117 429.26 51.493 431.933 29.1831 442.391L29.5763 443.23C51.732 432.844 72.1723 430.205 91.3743 433.074C110.583 435.944 128.582 444.33 145.842 456.04C172.017 473.798 196.425 499.147 220.736 524.397L220.737 524.398C228.511 532.472 236.276 540.536 244.086 548.339C276.271 580.495 309.227 608.211 346.654 613.468C384.136 618.732 425.937 601.461 475.776 544.088C525.547 486.793 565.405 456.842 601.056 443.962C636.683 431.092 668.166 435.25 701.255 446.318C717.58 451.779 734.3 458.927 752.096 466.535C806.433 489.766 870.798 517.283 964.564 514.14C1026.78 512.055 1057.56 497.719 1071.31 476.053C1078.18 465.227 1080.77 452.622 1080.94 438.916C1081.11 425.214 1078.86 410.379 1076.05 395.077C1075.27 390.818 1074.45 386.524 1073.62 382.207C1068.48 355.455 1063.17 327.835 1067.01 302.513C1069.23 287.828 1074.54 273.932 1084.73 261.446C1094.93 248.956 1110.05 237.852 1131.94 228.784C1202.06 199.737 1275.27 197.612 1338.31 206.767C1401.35 215.922 1454.19 236.354 1483.56 252.385L1484 251.572Z" clip-rule="evenodd" opacity=".2"/><path fill="url(#paint1_linear_540_925)" fill-opacity=".7" fill-rule="evenodd" d="M1425.58 478.757C1395.82 495.004 1342.33 515.678 1278.54 524.943C1214.75 534.207 1140.62 532.065 1069.59 502.641C1047.37 493.436 1031.96 482.137 1021.54 469.376C1011.12 456.614 1005.71 442.414 1003.44 427.443C999.533 401.692 1004.93 373.611 1010.12 346.601C1010.96 342.246 1011.79 337.918 1012.58 333.632C1015.41 318.18 1017.66 303.272 1017.49 289.527C1017.33 275.787 1014.74 263.242 1007.92 252.501C994.291 231.031 963.626 216.563 900.841 214.458C806.352 211.291 741.596 238.974 686.733 262.428C668.719 270.129 651.77 277.374 635.187 282.922C601.646 294.141 569.613 298.391 533.358 285.294C497.127 272.205 456.739 241.811 406.42 183.887C356.169 126.039 314.232 108.861 276.821 114.115C239.355 119.377 206.263 147.147 173.74 179.641C165.883 187.49 158.061 195.615 150.22 203.759C125.646 229.281 100.893 254.99 74.3637 272.989C56.8541 284.868 38.5415 293.412 18.958 296.338C-0.632084 299.265 -21.4644 296.565 -44 286.001L-43.6068 285.163C-21.2254 295.654 -0.576786 298.32 18.8211 295.422C38.2256 292.523 56.4081 284.051 73.8436 272.222C100.285 254.283 124.94 228.676 149.499 203.171C157.352 195.014 165.196 186.868 173.085 178.986C205.597 146.503 238.886 118.507 276.692 113.197C314.552 107.88 356.776 125.325 407.12 183.279C457.397 241.156 497.66 271.412 533.673 284.423C569.663 297.424 601.467 293.224 634.893 282.043C651.384 276.527 668.274 269.306 686.251 261.62C741.139 238.154 806.156 210.358 900.872 213.533C963.715 215.639 994.811 230.121 1008.7 252.004C1015.64 262.939 1018.25 275.671 1018.42 289.516C1018.59 303.357 1016.33 318.341 1013.49 333.799C1012.7 338.101 1011.86 342.44 1011.03 346.801C1005.84 373.824 1000.47 401.724 1004.35 427.304C1006.6 442.138 1011.96 456.176 1022.26 468.791C1032.56 481.407 1047.83 492.625 1069.94 501.785C1140.77 531.128 1214.73 533.274 1278.41 524.026C1342.09 514.777 1395.47 494.138 1425.13 477.944L1425.58 478.757ZM1297.26 487.512C1361.05 478.248 1414.53 457.573 1444.29 441.327L1443.85 440.514C1414.19 456.707 1360.81 477.347 1297.12 486.595C1233.44 495.843 1159.49 493.697 1088.66 464.354C1066.54 455.194 1051.27 443.977 1040.97 431.36C1030.67 418.746 1025.32 404.708 1023.07 389.873C1019.19 364.294 1024.55 336.393 1029.74 309.37C1030.58 305.009 1031.41 300.671 1032.2 296.369C1035.04 280.911 1037.31 265.926 1037.14 252.085C1036.97 238.24 1034.36 225.508 1027.42 214.574C1013.53 192.69 982.431 178.208 919.588 176.102C824.871 172.927 759.854 200.724 704.966 224.19C686.99 231.875 670.099 239.096 653.608 244.612C620.183 255.793 588.378 259.994 552.389 246.992C516.375 233.982 476.112 203.726 425.835 145.849C375.491 87.8943 333.268 70.4496 295.407 75.7668C257.602 81.0763 224.313 109.072 191.8 141.555C183.911 149.437 176.068 157.583 168.214 165.74L168.214 165.74C143.656 191.246 119 216.853 92.559 234.792C75.1235 246.621 56.941 255.092 37.5365 257.991C18.1386 260.889 -2.51001 258.223 -24.8914 247.732L-25.2846 248.571C-2.74905 259.134 18.0833 261.834 37.6734 258.908C57.2569 255.982 75.5695 247.438 93.0791 235.558C119.608 217.559 144.361 191.851 168.935 166.328C176.776 158.184 184.599 150.06 192.455 142.211C224.979 109.716 258.071 81.9459 295.536 76.6841C332.947 71.43 374.885 88.6089 425.136 146.456C475.454 204.381 515.843 234.774 552.074 247.863C588.329 260.961 620.361 256.71 653.902 245.491C670.486 239.944 687.434 232.698 705.449 224.997C760.311 201.543 825.067 173.861 919.557 177.028C982.341 179.132 1013.01 193.601 1026.63 215.07C1033.45 225.812 1036.04 238.356 1036.21 252.097C1036.38 265.841 1034.13 280.75 1031.29 296.201C1030.51 300.487 1029.67 304.815 1028.84 309.171C1023.65 336.18 1018.25 364.261 1022.15 390.012C1024.42 404.983 1029.83 419.183 1040.26 431.946C1050.67 444.706 1066.08 456.006 1088.3 465.21C1159.33 494.634 1233.46 496.777 1297.26 487.512ZM1463.01 403.896C1433.25 420.142 1379.76 440.817 1315.97 450.081C1252.18 459.346 1178.05 457.203 1107.02 427.779C1084.8 418.575 1069.39 407.276 1058.97 394.515C1048.55 381.752 1043.14 367.552 1040.87 352.581C1036.96 326.83 1042.36 298.749 1047.55 271.74C1048.39 267.384 1049.22 263.056 1050.01 258.771C1052.84 243.319 1055.09 228.41 1054.93 214.666C1054.76 200.926 1052.17 188.381 1045.35 177.639C1031.72 156.17 1001.06 141.701 938.272 139.597C843.783 136.43 779.027 164.113 724.164 187.566C706.149 195.267 689.201 202.513 672.617 208.06C639.077 219.279 607.044 223.53 570.789 210.432C534.558 197.343 494.17 166.95 443.851 109.025C393.6 51.1779 351.663 33.9991 314.252 39.2532C276.786 44.515 243.694 72.2852 211.17 104.78C203.314 112.629 195.492 120.754 187.651 128.897C163.077 154.42 138.323 180.129 111.795 198.127C94.2849 210.007 75.9723 218.551 56.3888 221.477C36.7987 224.403 15.9663 221.703 -6.56923 211.14L-6.17604 210.301C16.2054 220.792 36.854 223.458 56.2519 220.56C75.6564 217.661 93.8389 209.19 111.274 197.361C137.715 179.422 162.371 153.815 186.929 128.309L186.929 128.309C194.783 120.152 202.627 112.006 210.516 104.124C243.028 71.6412 276.317 43.6454 314.123 38.3358C351.983 33.0186 394.206 50.4633 444.551 108.418C494.828 166.295 535.091 196.551 571.104 209.561C607.094 222.563 638.898 218.362 672.323 207.181C688.815 201.665 705.705 194.444 723.682 186.759C778.57 163.293 843.587 135.496 938.303 138.671C1001.15 140.778 1032.24 155.26 1046.13 177.143C1053.07 188.077 1055.68 200.809 1055.85 214.654C1056.02 228.495 1053.76 243.48 1050.92 258.938C1050.13 263.239 1049.3 267.576 1048.46 271.936L1048.46 271.937V271.938L1048.46 271.939C1043.27 298.962 1037.91 326.863 1041.78 352.442C1044.03 367.277 1049.39 381.315 1059.69 393.929C1069.99 406.546 1085.26 417.764 1107.37 426.923C1178.2 456.266 1252.16 458.412 1315.84 449.164C1379.52 439.916 1432.9 419.276 1462.57 403.083L1463.01 403.896ZM1481.72 366.465C1451.97 382.711 1398.48 403.386 1334.69 412.65C1270.89 421.915 1196.76 419.772 1125.73 390.348C1103.51 381.144 1088.11 369.845 1077.69 357.084C1067.26 344.321 1061.85 330.121 1059.58 315.15C1055.68 289.399 1061.08 261.318 1066.27 234.309C1067.1 229.953 1067.94 225.625 1068.72 221.34C1071.56 205.888 1073.81 190.979 1073.64 177.235C1073.47 163.495 1070.88 150.95 1064.06 140.208C1050.44 118.739 1019.77 104.271 956.988 102.166C862.498 98.9988 797.742 126.682 742.88 150.135C724.865 157.837 707.917 165.082 691.333 170.629C657.792 181.848 625.759 186.099 589.505 173.001C553.274 159.912 512.885 129.519 462.567 71.5943C412.315 13.747 370.378 -3.43182 332.967 1.82227C295.502 7.08405 262.41 34.8543 229.886 67.3488C222.03 75.1976 214.208 83.3217 206.367 91.4648L206.366 91.4662C181.792 116.989 157.039 142.698 130.51 160.696C113 172.576 94.6877 181.12 75.1042 184.046C55.5141 186.972 34.6817 184.272 12.1462 173.709L12.5393 172.87C34.9208 183.361 55.5694 186.028 74.9673 183.129C94.3718 180.23 112.554 171.759 129.99 159.93C156.431 141.991 181.087 116.384 205.645 90.8784L205.645 90.8782L205.645 90.8778C213.499 82.7213 221.342 74.5751 229.231 66.6934C261.744 34.2103 295.033 6.21448 332.838 0.904907C370.698 -4.41229 412.922 13.0324 463.266 70.9868C513.543 128.864 553.806 159.12 589.819 172.13C625.809 185.132 657.613 180.931 691.039 169.751C707.53 164.234 724.42 157.013 742.397 149.328C797.285 125.862 862.302 98.0653 957.019 101.24C1019.86 103.347 1050.96 117.829 1064.85 139.712C1071.79 150.646 1074.4 163.379 1074.57 177.223C1074.74 191.064 1072.47 206.049 1069.63 221.507C1068.84 225.809 1068.01 230.147 1067.17 234.508C1061.98 261.531 1056.62 289.432 1060.5 315.011C1062.75 329.846 1068.1 343.884 1078.4 356.498C1088.71 369.115 1103.97 380.333 1126.09 389.493C1196.92 418.835 1270.87 420.982 1334.56 411.733C1398.24 402.485 1451.62 381.845 1481.28 365.652L1481.72 366.465Z" clip-rule="evenodd" opacity=".2"/><defs><linearGradient id="paint0_linear_540_925" x1="147.295" x2="1471.08" y1="481.251" y2="481.251" gradientUnits="userSpaceOnUse"><stop offset=".342" stop-color="#4535AF" stop-opacity=".7"/><stop offset=".512" stop-color="#F8EFF4" stop-opacity=".1"/><stop offset=".852" stop-color="#4535AF" stop-opacity=".8"/></linearGradient><linearGradient id="paint1_linear_540_925" x1="131.456" x2="1468.67" y1="134.461" y2="134.461" gradientUnits="userSpaceOnUse"><stop offset=".31" stop-color="#4535AF" stop-opacity=".7"/><stop offset=".461" stop-color="#F8EFF4" stop-opacity=".1"/><stop offset=".852" stop-color="#4535AF" stop-opacity=".8"/></linearGradient></defs></svg>