<svg width="58" height="58" viewBox="0 0 58 58" fill="none" xmlns="http://www.w3.org/2000/svg">
<circle cx="29" cy="29" r="29" fill="#D9F1FD"/>
<path d="M37.875 32.6666V24.3333C37.8746 23.968 37.7782 23.6092 37.5954 23.2929C37.4125 22.9766 37.1497 22.7139 36.8333 22.5312L29.5417 18.3646C29.225 18.1817 28.8657 18.0854 28.5 18.0854C28.1343 18.0854 27.775 18.1817 27.4583 18.3646L20.1667 22.5312C19.8503 22.7139 19.5875 22.9766 19.4046 23.2929C19.2218 23.6092 19.1254 23.968 19.125 24.3333V32.6666C19.1254 33.032 19.2218 33.3908 19.4046 33.7071C19.5875 34.0234 19.8503 34.2861 20.1667 34.4687L27.4583 38.6354C27.775 38.8182 28.1343 38.9145 28.5 38.9145C28.8657 38.9145 29.225 38.8182 29.5417 38.6354L36.8333 34.4687C37.1497 34.2861 37.4125 34.0234 37.5954 33.7071C37.7782 33.3908 37.8746 33.032 37.875 32.6666Z" stroke="black" stroke-width="1.5" stroke-linecap="round" stroke-linejoin="round"/>
<path d="M19.4062 23.25L28.5 28.5104L37.5938 23.25" stroke="black" stroke-width="1.5" stroke-linecap="round" stroke-linejoin="round"/>
<path d="M28.5 39V28.5" stroke="black" stroke-width="1.5" stroke-linecap="round" stroke-linejoin="round"/>
</svg>
