<svg xmlns="http://www.w3.org/2000/svg" width="58" height="58" fill="none" viewBox="0 0 58 58"><circle cx="29" cy="29" r="29" fill="#D8F5F1"/><path stroke="#000" stroke-linecap="round" stroke-linejoin="round" stroke-width="1.5" d="M21.2083 33.7083H20.1666C19.6141 33.7083 19.0842 33.4888 18.6935 33.0981C18.3028 32.7074 18.0833 32.1775 18.0833 31.625V21.2083C18.0833 20.6558 18.3028 20.1259 18.6935 19.7352C19.0842 19.3445 19.6141 19.125 20.1666 19.125H36.8333C37.3858 19.125 37.9158 19.3445 38.3065 19.7352C38.6972 20.1259 38.9166 20.6558 38.9166 21.2083V31.625C38.9166 32.1775 38.6972 32.7074 38.3065 33.0981C37.9158 33.4888 37.3858 33.7083 36.8333 33.7083H35.7916"/><path stroke="#000" stroke-linecap="round" stroke-linejoin="round" stroke-width="1.5" d="M28.5 31.625L33.7084 37.875H23.2917L28.5 31.625Z"/></svg>