<svg width="13" height="6" viewBox="0 0 13 6" fill="none" xmlns="http://www.w3.org/2000/svg">
<mask id="path-1-inside-1_65_560" fill="white">
<path d="M0.446777 0L6.44678 6L12.4468 0"/>
</mask>
<path d="M0.446777 0L6.44678 6L12.4468 0" fill="black"/>
<path d="M1.86099 -1.41421C1.07994 -2.19526 -0.186388 -2.19526 -0.967436 -1.41421C-1.74848 -0.633165 -1.74848 0.633165 -0.967436 1.41421L1.86099 -1.41421ZM6.44678 6L5.03256 7.41421C5.81361 8.19526 7.07994 8.19526 7.86099 7.41421L6.44678 6ZM13.861 1.41421C14.642 0.633165 14.642 -0.633165 13.861 -1.41421C13.0799 -2.19526 11.8136 -2.19526 11.0326 -1.41421L13.861 1.41421ZM-0.967436 1.41421L5.03256 7.41421L7.86099 4.58579L1.86099 -1.41421L-0.967436 1.41421ZM7.86099 7.41421L13.861 1.41421L11.0326 -1.41421L5.03256 4.58579L7.86099 7.41421Z" fill="black" mask="url(#path-1-inside-1_65_560)"/>
</svg>
