<svg width="20" height="21" viewBox="0 0 20 21" fill="none" xmlns="http://www.w3.org/2000/svg">
<path d="M19.8689 10.5684C19.8698 9.88697 19.8117 9.20673 19.6955 8.53516H10.1997V12.3864H15.6385C15.5272 13.0014 15.2916 13.5878 14.946 14.11C14.6004 14.6323 14.1518 15.0796 13.6274 15.4251V17.925H16.8733C18.7739 16.1848 19.8689 13.6113 19.8689 10.5684Z" fill="#4285F4"/>
<path d="M10.1997 20.3403C12.9169 20.3403 15.2049 19.4543 16.8733 17.9266L13.6274 15.4267C12.7239 16.035 11.5604 16.3822 10.1997 16.3822C7.57328 16.3822 5.34408 14.624 4.54693 12.2546H1.20312V14.8309C2.0412 16.487 3.32629 17.8793 4.91494 18.8521C6.50358 19.825 8.33324 20.3403 10.1997 20.3403Z" fill="#34A853"/>
<path d="M4.54686 12.2543C4.12543 11.0128 4.12543 9.66827 4.54686 8.42672V5.85046H1.20305C0.498032 7.24366 0.130859 8.78129 0.130859 10.3405C0.130859 11.8997 0.498032 13.4374 1.20305 14.8306L4.54686 12.2543Z" fill="#FBBC04"/>
<path d="M10.1997 4.29912C11.6356 4.27583 13.0231 4.81462 14.0623 5.79905L16.9362 2.94502C15.1139 1.24521 12.6996 0.311991 10.1997 0.340988C8.33324 0.341073 6.50358 0.856316 4.91494 1.82919C3.32629 2.80207 2.0412 4.1943 1.20312 5.85043L4.54693 8.42669C5.34408 6.05737 7.57328 4.29912 10.1997 4.29912Z" fill="#EA4335"/>
</svg>
