<svg width="54" height="54" viewBox="0 0 54 54" fill="none" xmlns="http://www.w3.org/2000/svg">
<path d="M54 27C54 41.9117 41.9117 54 27 54C12.0883 54 0 41.9117 0 27C0 12.0883 12.0883 0 27 0C41.9117 0 54 12.0883 54 27ZM4.65338 27C4.65338 39.3417 14.6583 49.3466 27 49.3466C39.3417 49.3466 49.3466 39.3417 49.3466 27C49.3466 14.6583 39.3417 4.65338 27 4.65338C14.6583 4.65338 4.65338 14.6583 4.65338 27Z" fill="#DDDDDD"/>
<path d="M27 51.6733C27 52.9583 25.9564 54.0104 24.6762 53.8998C21.3379 53.6114 18.0755 52.7035 15.0582 51.2156C11.3438 49.3838 8.10062 46.7222 5.57946 43.4366C3.05829 40.1509 1.32676 36.3293 0.518797 32.2674C-0.137526 28.9679 -0.170121 25.5816 0.415322 22.2825C0.639842 21.0172 1.9262 20.2815 3.16741 20.6141C4.40862 20.9467 5.13238 22.2219 4.9306 23.491C4.51638 26.0962 4.56575 28.7604 5.08276 31.3596C5.75147 34.7214 7.18458 37.8844 9.27123 40.6038C11.3579 43.3231 14.0421 45.526 17.1163 47.0421C19.4932 48.2142 22.0539 48.9514 24.6775 49.2256C25.9555 49.3592 27 50.3883 27 51.6733Z" fill="#1EA5FC"/>
<path d="M16.154 22.11L16.63 23.762L18.478 23.244V31H20.41V21.2H18.73L16.154 22.11ZM28.3441 31V29.138H24.6621L26.5801 27.22C27.6581 26.142 28.1901 25.106 28.1901 24.084C28.1901 23.146 27.8681 22.39 27.2381 21.844C26.6081 21.284 25.8381 21.004 24.9561 21.004C23.5701 21.004 22.3381 21.732 21.7221 23.076L23.3461 24.028C23.6961 23.258 24.2421 22.88 24.9841 22.88C25.7261 22.88 26.2581 23.384 26.2581 24.154C26.2581 24.672 25.8801 25.33 25.1381 26.114L21.7921 29.558V31H28.3441ZM33.3908 24.966C33.8388 24.518 34.0628 23.972 34.0628 23.314C34.0628 22.656 33.8388 22.11 33.3908 21.676C32.9428 21.228 32.3828 21.004 31.7108 21.004C31.0388 21.004 30.4788 21.228 30.0168 21.676C29.5688 22.124 29.3448 22.67 29.3448 23.314C29.3448 23.958 29.5688 24.504 30.0168 24.952C30.4788 25.4 31.0388 25.624 31.7108 25.624C32.3828 25.624 32.9428 25.4 33.3908 24.966ZM31.1788 30.006L37.5768 22.894L36.7228 22.418L30.3388 29.516L31.1788 30.006ZM31.0668 23.958C30.7448 23.608 30.7448 23.02 31.0668 22.684C31.4028 22.348 31.9908 22.348 32.3268 22.684C32.6628 23.02 32.6628 23.608 32.3268 23.958C31.9908 24.294 31.4028 24.294 31.0668 23.958ZM38.1228 30.496C38.5708 30.048 38.7948 29.502 38.7948 28.858C38.7948 28.214 38.5708 27.668 38.1228 27.22C37.6748 26.772 37.1148 26.548 36.4428 26.548C35.7708 26.548 35.2108 26.772 34.7628 27.22C34.3148 27.668 34.0908 28.214 34.0908 28.858C34.0908 29.502 34.3148 30.048 34.7628 30.496C35.2108 30.944 35.7708 31.168 36.4428 31.168C37.1148 31.168 37.6748 30.944 38.1228 30.496ZM37.3108 28.858C37.3108 29.348 36.9468 29.754 36.4428 29.754C35.9388 29.754 35.5748 29.362 35.5748 28.858C35.5748 28.354 35.9388 27.962 36.4428 27.962C36.9468 27.962 37.3108 28.354 37.3108 28.858Z" fill="black"/>
</svg>
